<svg xmlns="http://www.w3.org/2000/svg" width="6.425" height="9.94" viewBox="0 0 6.425 9.94"><g transform="translate(0 0)"><path d="M733.915,818.341c-.432-.685-.9-1.369-1.3-2.018a13.984,13.984,0,0,1-1.729-3.531,3.1,3.1,0,0,1,2.45-3.891,3.21,3.21,0,0,1,3.819,2.666,3.058,3.058,0,0,1-.252,1.693A35.27,35.27,0,0,1,733.915,818.341Zm0-4.251a2.108,2.108,0,1,0,0-4.216,2.154,2.154,0,0,0-2.162,2.09A2.185,2.185,0,0,0,733.915,814.089Z" transform="translate(-730.77 -808.845)"/><path d="M736.2,831.436c.252.108.54.18.793.288.216.108.468.288.432.54a.761.761,0,0,1-.432.5,4.79,4.79,0,0,1-1.225.36,7.055,7.055,0,0,1-2.882-.144,1.914,1.914,0,0,1-.613-.288.518.518,0,0,1,0-.937c.108-.072.216-.108.324-.18a3.54,3.54,0,0,1,.577-.18c.036.036.036.072.072.072-.072.072-.108.144-.18.18a6.353,6.353,0,0,0-.721.324c-.252.144-.288.4,0,.541a2.615,2.615,0,0,0,1.009.36,5.923,5.923,0,0,0,3.171-.144,2.2,2.2,0,0,0,.5-.252c.216-.18.216-.36,0-.5a4.379,4.379,0,0,0-.721-.324c-.072-.036-.144-.108-.216-.144C736.163,831.508,736.163,831.472,736.2,831.436Z" transform="translate(-731.541 -823.274)"/></g></svg>