<svg xmlns="http://www.w3.org/2000/svg" width="11.106" height="13.981" viewBox="0 0 11.106 13.981"><defs><style>.a{fill:none;stroke:#959595;}</style></defs><path class="a" d="M156.414,27.465a5.057,5.057,0,0,0-5.053,5.049,8.812,8.812,0,0,0,2.43,5.5,17.266,17.266,0,0,0,2.4,2.361.362.362,0,0,0,.442,0,17.273,17.273,0,0,0,2.4-2.361,8.812,8.812,0,0,0,2.43-5.5A5.057,5.057,0,0,0,156.414,27.465Zm1.871,5.049a1.871,1.871,0,1,1-1.871-1.87A1.871,1.871,0,0,1,158.286,32.514Z" transform="translate(-150.861 -26.965)"/></svg>