<svg xmlns="http://www.w3.org/2000/svg" width="21.355" height="19.83" viewBox="0 0 21.355 19.83"><path d="M22.8,10.239H15.783L13.652,3.88a.772.772,0,0,0-1.449,0l-2.131,6.359H3.013A.765.765,0,0,0,2.25,11a.56.56,0,0,0,.014.129.733.733,0,0,0,.319.539l5.763,4.061-2.212,6.43a.765.765,0,0,0,.262.858.738.738,0,0,0,.429.186.934.934,0,0,0,.477-.172l5.625-4.009,5.625,4.009a.893.893,0,0,0,.477.172.685.685,0,0,0,.424-.186.756.756,0,0,0,.262-.858L17.5,15.731l5.715-4.1.138-.119a.8.8,0,0,0,.248-.51A.807.807,0,0,0,22.8,10.239Z" transform="translate(-2.25 -3.375)"/></svg>
